# xmcd CD database file
#
# Track frame offsets:
#	150
#	19916
#	34603
#	53893
#	85538
#	115231
#	132400
#	155329
#	173654
#	192512
#	236958
#	251805
#
# Disc length: 3639 seconds
#
# Revision: 0
# Processed by: cddbd v1.4PL0 Copyright (c) Steve Scherf et al.
# Submitted via: Feurio! 1.65 - http://www.feurio.com
#
DISCID=9e0e350c
DTITLE=Engerling  - Das Jubiläumskonzert 2000 Kulturbrauerei Berlin
DYEAR=1900
DGENRE=Blues
TTITLE0=Tom Tomskis Blues
TTITLE1=Herbstlied
TTITLE2=Zinker
TTITLE3=Stormy monday
TTITLE4=Als ich wie ein Vogel war
TTITLE5=Born to be wild
TTITLE6=Engerling's blues
TTITLE7=Danke Mutter!
TTITLE8=Moll's party
TTITLE9=Mollblues
TTITLE10=Bloss keinen Blues
TTITLE11=Häng dich in den Wind
EXTD=
EXTT0=
EXTT1=
EXTT2=
EXTT3=
EXTT4=
EXTT5=
EXTT6=
EXTT7=
EXTT8=
EXTT9=
EXTT10=
EXTT11=
PLAYORDER=
